<?xml version="1.0" encoding="utf-8"?>
<!-- Generator: Adobe Illustrator 24.1.2, SVG Export Plug-In . SVG Version: 6.00 Build 0)  -->
<svg version="1.1" id="Layer_1" xmlns="http://www.w3.org/2000/svg" xmlns:xlink="http://www.w3.org/1999/xlink" x="0px" y="0px"
	 viewBox="0 0 512 512" style="enable-background:new 0 0 512 512;" xml:space="preserve">
<style type="text/css">
	.st0{fill:#FF6333;}
</style>
<g>
	<g>
		<path class="st0" d="M368.2,173.8c-24,36.2-46.8,71.3-70.4,105.8c-5.7,8.3-6.2,14.1-0.4,22.6c13.2,19.2,24.8,39.5,37.5,59
			c11.1,16.9,12.1,33.5,0.8,50.6c-18.1,27.4-35.8,55.1-54.4,82.1c-13.1,18.9-37.4,23.2-55.4,10.9c-18.3-12.4-23.1-35.8-10.7-55.5
			c11.1-17.7,22.7-35.2,34.8-52.3c5.2-7.3,5.2-12.5,0.3-20.1c-25.6-39.6-50-79.8-75.8-119.2c-6.6-10.1-6.2-16.9,0.6-26.1
			c10.9-14.8,20.5-30.6,31.7-47.4c-11.8-2.9-21.7-6.1-31.9-7.3c-3.3-0.4-8.2,3.5-10.5,6.8c-10.4,14.8-20,30.1-30.2,45.1
			c-14.4,21-37.6,26.4-57,13.7c-19.2-12.6-23.5-36.6-9.7-57.7c16.4-25.1,33-50.1,49.8-74.9c11.6-17.1,25.7-22.4,45.6-18
			c27.4,6.1,54.7,12.3,82.1,18.4c1.9,0.4,3.8,0.8,5.5,1.5c11.2,5.2,22.5,10.1,33.4,16C311.8,142.8,339.5,158.1,368.2,173.8z"/>
		<path class="st0" d="M160.7,255.6c14.1,22.2,28.1,43.6,41.3,65.5c1.6,2.6,0.8,8.3-1.1,11.2c-12.5,19.6-25.2,39.2-38.6,58.2
			c-9.9,14.2-24.3,19.7-41.2,16C92,400,62.9,393.1,33.9,385.9c-23.9-6-36.7-26.3-31-48c5.6-21.3,25.2-33.8,46.8-29.2
			c17.6,3.7,35.2,7.7,52.7,12.2c7.6,1.9,12,0.2,16.4-6.6c11.9-18.3,24.6-36.1,37-54C156.8,258.8,158.4,257.7,160.7,255.6z"/>
		<path class="st0" d="M329.9,249.2c15.3-22.8,29.3-44.3,44-65.2c1.8-2.5,8.6-3.9,11.8-2.6c12.8,4.9,19.7-0.1,26-11.1
			c7.7-13.6,17-26.4,25.9-39.3c13.6-19.6,36.1-24.6,54.9-12.6c18.9,12.1,23.6,36.1,10.5,56.4c-16,24.8-32.5,49.3-48.9,73.8
			c-10,14.9-24.8,21.7-41.9,18.6C385.2,262.4,358.6,255.6,329.9,249.2z"/>
		<path class="st0" d="M280,68.4c0.1-38.3,31-68.6,69.4-68.2C387,0.7,417.1,31.3,417,68.9c-0.1,37.5-30.5,67.9-68.2,68.3
			C310.8,137.5,279.9,106.8,280,68.4z"/>
	</g>
</g>
</svg>
