<?xml version="1.0" encoding="utf-8"?>
<!-- Generator: Adobe Illustrator 24.1.2, SVG Export Plug-In . SVG Version: 6.00 Build 0)  -->
<svg version="1.1" id="Layer_1" xmlns="http://www.w3.org/2000/svg" xmlns:xlink="http://www.w3.org/1999/xlink" x="0px" y="0px"
	 viewBox="0 0 512 512" style="enable-background:new 0 0 512 512;" xml:space="preserve">
<style type="text/css">
	.st0{fill:#00FF00;}
</style>
<g>
	<path class="st0" d="M130.4,356.7L119.3,317H49l-11.4,39.8H0l59.7-201.5h53l59.7,201.5H130.4z M84.6,192.3L58.1,286h52.7
		L84.6,192.3z"/>
	<path class="st0" d="M287.1,356.7l-54-120.3L222,210.6v83.6v62.6h-34.5V155.3H234l55,121l9.7,23.6v-89v-55.7h34.5v201.5H287.1z"/>
	<path class="st0" d="M512,253.5c0,15.6-1.9,29.8-5.8,42.6c-3.9,12.7-9.9,23.6-18,32.6c-8.2,9-18.6,15.9-31.4,20.8
		c-12.7,4.9-28,7.3-45.8,7.3h-51.2V155.3h59.7c15.4,0,28.9,1.9,40.5,5.8c11.6,3.9,21.2,9.8,28.9,17.8c7.7,8,13.5,18.2,17.3,30.5
		C510.1,221.7,512,236.4,512,253.5z M471.3,255.9c0-10.9-0.9-20.6-2.6-29.1c-1.7-8.5-4.7-15.7-8.9-21.7c-4.2-5.9-9.7-10.4-16.7-13.5
		c-7-3.1-15.7-4.6-26.1-4.6h-19.3v138h16.7c18.6,0,32.7-5.5,42.4-16.6C466.5,297.2,471.3,279.8,471.3,255.9z"/>
</g>
</svg>
