<?xml version="1.0" encoding="utf-8"?>
<!-- Generator: Adobe Illustrator 24.1.2, SVG Export Plug-In . SVG Version: 6.00 Build 0)  -->
<svg version="1.1" id="Layer_1" xmlns="http://www.w3.org/2000/svg" xmlns:xlink="http://www.w3.org/1999/xlink" x="0px" y="0px"
	 viewBox="0 0 16 16" style="enable-background:new 0 0 16 16;" xml:space="preserve">
<style type="text/css">
	.st0{fill:#00FC00;}
</style>
<g>
	<g>
		<path class="st0" d="M7.7,16.1c-3.5-0.1-2.5-5.5,0.8-4.3C10.7,12.7,10,16,7.7,16.1z M7.7,12.8c-2,0.1-1.4,2.9,0.5,2.3
			C9.5,14.6,9,12.7,7.7,12.8z M9.2,11.6H6.1L5.8,6.7c1.4,0.1,4.4,0.2,3.3-2C8.6,3.2,6.4,3.5,5,3.5V0.1c6.6-1.4,12.2,7.1,4.3,9.5
			L9.2,11.6z M7,10.6h1.3l0.1-1.9c6.7-1,3.2-8.5-2.4-7.6v1.4c4.6-0.7,6.3,5.7,0.9,5.2L7,10.6z"/>
	</g>
</g>
</svg>
