<?xml version="1.0" encoding="utf-8"?>
<!-- Generator: Adobe Illustrator 24.1.2, SVG Export Plug-In . SVG Version: 6.00 Build 0)  -->
<svg version="1.1" id="Layer_1" xmlns="http://www.w3.org/2000/svg" xmlns:xlink="http://www.w3.org/1999/xlink" x="0px" y="0px"
	 viewBox="0 0 512 512" style="enable-background:new 0 0 512 512;" xml:space="preserve">
<style type="text/css">
	.st0{fill:#00FF00;}
</style>
<g>
	<path class="st0" d="M122.9,356.7L84,282.5l-38.2,74.2H0l58.1-103.3L3.9,155.2h44.6l36.5,70.1l35.3-70.1h44.6l-54,98.2l60.3,103.3
		H122.9z"/>
	<path class="st0" d="M340.3,255.1c0,18.3-2.1,34.1-6.4,47.3c-4.3,13.3-10.1,24.2-17.6,32.7c-7.5,8.5-16.2,14.9-26.2,19
		c-10,4.1-20.7,6.2-32.1,6.2c-26.5,0-46.5-8.8-59.8-26.4c-13.4-17.6-20-43.2-20-76.9c0-18.3,2.1-34.1,6.4-47.3
		c4.3-13.3,10.1-24.2,17.6-32.7c7.5-8.5,16.2-14.9,26.2-19c10-4.1,20.7-6.2,32.1-6.2c26.5,0,46.5,8.8,59.8,26.4
		C333.6,195.7,340.3,221.4,340.3,255.1z M300.2,256.9c0-23.8-3.2-41.6-9.6-53.3c-6.4-11.7-16.9-17.6-31.5-17.6
		c-7.3,0-13.5,1.5-18.7,4.5c-5.1,3-9.4,7.5-12.7,13.3c-3.3,5.9-5.8,13.1-7.3,21.7c-1.5,8.6-2.3,18.4-2.3,29.5
		c0,23.8,3.2,41.6,9.6,53.3c6.4,11.7,16.9,17.6,31.4,17.6c7.3,0,13.5-1.5,18.7-4.5c5.2-3,9.4-7.5,12.7-13.3
		c3.3-5.9,5.7-13.1,7.2-21.7C299.4,277.9,300.2,268,300.2,256.9z"/>
	<path class="st0" d="M467.4,356.7l-28.4-64.8c-2.7-6.2-6.4-10.8-11.2-14c-4.8-3.1-10.4-4.7-16.9-4.7h-7.2v83.4h-37.9V155.2h58.7
		c11.1,0,21.2,1,30.2,2.9c9,1.9,16.8,5.1,23.1,9.5c6.4,4.4,11.3,10.2,14.7,17.3c3.4,7.1,5.2,15.8,5.2,26.1c0,7.4-1.1,14-3.2,19.7
		c-2.2,5.8-5.2,10.7-9.1,14.9c-3.9,4.2-8.6,7.5-14,10.1c-5.4,2.6-11.3,4.4-17.7,5.4c4.9,1,9.5,3.8,13.6,8.4
		c4.1,4.6,8.2,11.2,12.3,19.8l32.2,67.5H467.4z M458,214.5c0-9.9-3.1-17-9.4-21.3c-6.3-4.3-15.7-6.5-28.2-6.5h-16.6v56.9h15.4
		c5.9,0,11.2-0.6,16-1.9c4.8-1.2,8.9-3.1,12.3-5.5c3.4-2.5,6-5.5,7.9-9.2C457.1,223.4,458,219.3,458,214.5z"/>
</g>
</svg>
