<?xml version="1.0" encoding="utf-8"?>
<svg version="1.1" id="Layer_1" viewBox="0 0 16 16">
<style type="text/css">
	.st0{fill:#F37D7F;}
</style>
<path class="st0" d="M12,5c0.1,2.4-1.8,4.2-4.1,4.4l-0.1,2.1H5.3L5.1,7.2c1.5,0.1,3.9,0.1,3.8-2c0-2.3-2.8-2.7-4.7-2.6L4,0
	C7.4-0.2,11.9,1.1,12,5z"/>
<path class="st0" d="M8,14.6c0,0.2,0,0.4-0.1,0.6c-0.1,0.2-0.2,0.3-0.3,0.5c-0.1,0.1-0.3,0.2-0.5,0.3S6.7,16,6.5,16
	c-0.2,0-0.4,0-0.6-0.1s-0.3-0.2-0.5-0.3c-0.1-0.1-0.2-0.3-0.3-0.5c-0.1-0.2-0.1-0.4-0.1-0.6s0-0.4,0.1-0.6s0.2-0.3,0.3-0.5
	c0.1-0.1,0.3-0.2,0.5-0.3c0.2-0.1,0.4-0.1,0.6-0.1c0.2,0,0.4,0,0.6,0.1c0.2,0.1,0.3,0.2,0.5,0.3c0.1,0.1,0.2,0.3,0.3,0.5
	C8,14.2,8,14.4,8,14.6z"/>
</svg>
