<?xml version="1.0" encoding="utf-8"?>
<!-- Generator: Adobe Illustrator 24.1.2, SVG Export Plug-In . SVG Version: 6.00 Build 0)  -->
<svg version="1.1" id="Layer_1" xmlns="http://www.w3.org/2000/svg" xmlns:xlink="http://www.w3.org/1999/xlink" x="0px" y="0px"
	 viewBox="0 0 512 512" style="enable-background:new 0 0 512 512;" xml:space="preserve">
<style type="text/css">
	.st0{fill:#00FF00;}
</style>
<g>
	<path class="st0" d="M425.9,154.7c0,20-3,37.9-9.1,53.7c-6.1,15.8-14.7,29.5-26,41c-11.3,11.5-24.9,20.9-40.8,28
		c-15.9,7.1-33.8,12-53.5,14.6l-3.6,67h-74.5L212,225h51.7c11.6,0,21.7-1.7,30.1-5c8.4-3.3,15.3-7.8,20.7-13.5
		c5.3-5.7,9.3-12.3,11.8-19.8c2.5-7.5,3.7-15.4,3.7-23.7c0-11.4-2.4-22-7.3-31.9c-4.9-9.9-12.5-18.5-22.8-26
		c-10.3-7.5-23.5-13.4-39.4-17.6c-15.9-4.3-35.1-6.4-57.4-6.4h-21V0h24.6c36.6,0,68.6,4.3,95.9,13c27.3,8.7,50.2,20.2,68.5,34.6
		c18.3,14.4,32,30.8,41.2,49.4C421.4,115.5,425.9,134.8,425.9,154.7z M314.7,455c0,7.8-1.5,15.2-4.6,22.1c-3.1,6.9-7.3,13-12.5,18.2
		c-5.2,5.2-11.4,9.3-18.5,12.3c-7.1,3-14.7,4.5-22.8,4.5c-8.1,0-15.6-1.5-22.6-4.5c-7-3-13.1-7.1-18.4-12.3
		c-5.2-5.2-9.4-11.3-12.5-18.2c-3.1-6.9-4.6-14.3-4.6-22.1s1.5-15.2,4.6-22.1c3.1-6.9,7.2-13,12.5-18.2c5.2-5.2,11.3-9.3,18.4-12.3
		c7-3,14.6-4.5,22.6-4.5c8.1,0,15.7,1.5,22.8,4.5c7.1,3,13.3,7.1,18.5,12.3c5.2,5.2,9.4,11.3,12.5,18.2
		C313.1,439.7,314.7,447.1,314.7,455z"/>
</g>
</svg>
