<?xml version="1.0" encoding="utf-8"?>
<!-- Generator: Adobe Illustrator 24.1.2, SVG Export Plug-In . SVG Version: 6.00 Build 0)  -->
<svg version="1.1" id="Layer_1" xmlns="http://www.w3.org/2000/svg" xmlns:xlink="http://www.w3.org/1999/xlink" x="0px" y="0px"
	 viewBox="0 0 512 512" style="enable-background:new 0 0 512 512;" xml:space="preserve">
<style type="text/css">
	.st0{fill:#00FF00;}
</style>
<g>
	<path class="st0" d="M103.2,360.3L47.3,235.7l-11.5-26.8v86.6v64.9H0V151.5h48.2l57,125.4l10.1,24.4v-92.2v-57.7h35.8v208.8H103.2z
		"/>
	<path class="st0" d="M338.8,255c0,19-2.2,35.3-6.6,49c-4.4,13.7-10.5,25-18.2,33.9c-7.7,8.8-16.8,15.4-27.2,19.6
		c-10.4,4.3-21.5,6.4-33.3,6.4c-27.5,0-48.1-9.1-62-27.4c-13.8-18.3-20.8-44.8-20.8-79.6c0-19,2.2-35.3,6.6-49
		c4.4-13.7,10.5-25,18.2-33.9c7.7-8.8,16.8-15.4,27.2-19.6c10.4-4.3,21.5-6.4,33.3-6.4c27.5,0,48.1,9.1,62,27.3
		C331.9,193.5,338.8,220.1,338.8,255z M297.3,257c0-24.7-3.3-43.1-9.9-55.3c-6.6-12.1-17.5-18.2-32.6-18.2c-7.6,0-14,1.6-19.3,4.7
		c-5.3,3.1-9.7,7.7-13.2,13.8c-3.5,6.1-6,13.6-7.6,22.4c-1.6,8.9-2.4,19.1-2.4,30.6c0,24.7,3.3,43.1,10,55.3
		c6.7,12.1,17.5,18.2,32.5,18.2c7.6,0,14-1.6,19.4-4.7c5.4-3.1,9.8-7.7,13.2-13.8c3.4-6.1,5.9-13.6,7.5-22.4
		C296.5,278.7,297.3,268.5,297.3,257z"/>
	<path class="st0" d="M454.8,184.3v176h-40.3v-176h-57.2v-32.7H512v32.7H454.8z"/>
</g>
</svg>
