<?xml version="1.0" encoding="utf-8"?>
<!-- Generator: Adobe Illustrator 24.1.2, SVG Export Plug-In . SVG Version: 6.00 Build 0)  -->
<svg version="1.1" id="Layer_1" xmlns="http://www.w3.org/2000/svg" xmlns:xlink="http://www.w3.org/1999/xlink" x="0px" y="0px"
	 viewBox="0 0 512 512" style="enable-background:new 0 0 512 512;" xml:space="preserve">
<style type="text/css">
	.st0{fill:#00FF00;}
</style>
<g>
	<path class="st0" d="M251,255c0,19-2.2,35.3-6.6,49c-4.4,13.7-10.5,25-18.2,33.9c-7.7,8.8-16.8,15.4-27.2,19.6
		c-10.4,4.3-21.5,6.4-33.3,6.4c-27.5,0-48.1-9.1-62-27.4C89.9,318.3,83,291.8,83,257c0-19,2.2-35.3,6.6-49
		c4.4-13.7,10.5-25,18.2-33.9c7.7-8.8,16.8-15.4,27.2-19.6c10.4-4.3,21.5-6.4,33.3-6.4c27.5,0,48.1,9.1,62,27.3
		C244.1,193.5,251,220.1,251,255z M209.5,257c0-24.7-3.3-43.1-9.9-55.3c-6.6-12.1-17.5-18.2-32.6-18.2c-7.6,0-14,1.6-19.3,4.7
		c-5.3,3.1-9.7,7.7-13.2,13.8c-3.5,6.1-6,13.6-7.6,22.4c-1.6,8.9-2.4,19.1-2.4,30.6c0,24.7,3.3,43.1,10,55.3
		c6.7,12.1,17.5,18.2,32.5,18.2c7.6,0,14-1.6,19.4-4.7c5.4-3.1,9.8-7.7,13.2-13.8c3.4-6.1,5.9-13.6,7.5-22.4
		C208.7,278.7,209.5,268.5,209.5,257z"/>
	<path class="st0" d="M382.8,360.3l-29.4-67.1c-2.8-6.4-6.6-11.2-11.6-14.5c-5-3.2-10.8-4.9-17.5-4.9h-7.5v86.4h-39.3V151.5h60.9
		c11.5,0,21.9,1,31.3,3c9.4,2,17.4,5.2,24,9.8c6.6,4.6,11.7,10.5,15.3,17.9c3.6,7.3,5.4,16.3,5.4,27c0,7.7-1.1,14.5-3.4,20.4
		c-2.2,6-5.4,11.1-9.4,15.4c-4,4.3-8.9,7.8-14.5,10.5c-5.6,2.7-11.7,4.5-18.3,5.6c5.1,1.1,9.8,4,14.1,8.7
		c4.3,4.7,8.5,11.6,12.8,20.5l33.4,70H382.8z M373.1,213c0-10.2-3.2-17.6-9.7-22c-6.5-4.5-16.2-6.7-29.2-6.7h-17.3v58.9h16
		c6.1,0,11.6-0.6,16.5-1.9c5-1.3,9.2-3.2,12.7-5.8c3.5-2.6,6.2-5.7,8.1-9.5C372.1,222.3,373.1,217.9,373.1,213z"/>
</g>
</svg>
